<?xml version="1.0" encoding="UTF-8"?>
<svg id="Layer_1" xmlns="http://www.w3.org/2000/svg" version="1.1" viewBox="0 0 841.89 225">
  <!-- Generator: Adobe Illustrator 29.1.0, SVG Export Plug-In . SVG Version: 2.1.0 Build 142)  -->
  <defs>
    <style>
      .st0 {
        fill: #3b56a6;
      }

      .st0, .st1, .st2, .st3 {
        stroke: #231f20;
        stroke-miterlimit: 10;
      }

      .st0, .st2, .st3 {
        stroke-width: .5px;
      }

      .st4 {
        fill: #231f20;
      }

      .st1 {
        fill: #a4c497;
      }

      .st2 {
        fill: #e52925;
      }

      .st3 {
        fill: #fff;
      }
    </style>
  </defs>
  <rect class="st1" x="-7.15" y="-3.53" width="857.2" height="231.22"/>
  <rect class="st3" x="490.65" y="50.44" width="319.55" height="113.22"/>
  <g>
    <path class="st4" d="M43.74,80.24v1.78h-5.34v3.1h5.11v1.78h-5.11v3.35h5.46v1.78h-7.74v-11.79h7.62Z"/>
    <path class="st4" d="M50.29,83.99c.84,0,1.52.28,2.02.83.5.55.76,1.28.76,2.19v5.01h-2.07v-4.8c0-.51-.12-.92-.37-1.22-.24-.3-.58-.45-1-.45-.32,0-.62.09-.9.28-.28.19-.59.5-.93.94v5.24h-2.08v-7.88h2.08v1.11c.38-.45.77-.77,1.18-.97.4-.19.84-.29,1.31-.29Z"/>
    <path class="st4" d="M60.39,84.32v-4.08h2.07v11.79h-3.65c-1.26,0-2.27-.36-3.02-1.09-.76-.73-1.13-1.72-1.13-2.97,0-.74.18-1.42.53-2.02s.83-1.08,1.45-1.43c.62-.35,1.28-.52,2-.52.55,0,1.14.11,1.76.33ZM59.31,90.44h1.09v-4.56c-.43-.22-.87-.33-1.33-.33-.69,0-1.24.22-1.66.65-.41.43-.62,1-.62,1.7,0,1.69.84,2.54,2.52,2.54Z"/>
    <path class="st4" d="M79.29,80.24l-6.87,10.01h6.9v1.78h-10.82l6.86-10.01h-6.45v-1.78h10.37Z"/>
    <path class="st4" d="M84.7,83.99c.82,0,1.57.17,2.24.52.67.34,1.19.82,1.55,1.44.37.62.55,1.32.55,2.1s-.18,1.53-.53,2.14c-.35.61-.87,1.1-1.55,1.45-.68.35-1.44.53-2.26.53s-1.58-.18-2.25-.53c-.67-.35-1.19-.84-1.54-1.45-.35-.61-.53-1.33-.53-2.14s.19-1.5.56-2.11c.37-.62.89-1.09,1.55-1.43.66-.34,1.4-.51,2.21-.51ZM82.56,88.05c0,.79.19,1.42.58,1.89.39.47.9.7,1.55.7s1.21-.23,1.59-.67c.39-.45.58-1.09.58-1.93s-.2-1.42-.59-1.85c-.39-.44-.92-.65-1.59-.65-.63,0-1.14.23-1.54.69-.39.46-.59,1.07-.59,1.83Z"/>
    <path class="st4" d="M95.27,83.99c.84,0,1.52.28,2.02.83.5.55.76,1.28.76,2.19v5.01h-2.07v-4.8c0-.51-.12-.92-.37-1.22-.24-.3-.58-.45-1-.45-.32,0-.62.09-.9.28-.28.19-.59.5-.93.94v5.24h-2.08v-7.88h2.08v1.11c.38-.45.77-.77,1.18-.97.4-.19.84-.29,1.31-.29Z"/>
    <path class="st4" d="M103.58,83.99c1.16,0,2.08.37,2.75,1.11.67.74,1.01,1.77,1.01,3.08v.31h-5.58c.08.7.35,1.24.79,1.62.44.38,1.05.57,1.82.57.49,0,.97-.09,1.43-.26.46-.17.93-.43,1.42-.78v1.54c-.92.65-2.04.98-3.36.98-1.24,0-2.26-.37-3.05-1.12s-1.18-1.74-1.18-2.99.36-2.18,1.09-2.94,1.68-1.14,2.85-1.14ZM105.39,87.24c-.06-.57-.23-1.02-.52-1.35-.29-.32-.69-.49-1.21-.49s-.94.15-1.26.46-.52.77-.6,1.37h3.59Z"/>
    <path class="st4" d="M117.45,80.08c1.15,0,2.25.29,3.32.86v2.03c-1.22-.74-2.3-1.11-3.25-1.11-.57,0-1.02.11-1.35.33-.32.22-.49.52-.49.89,0,.44.3.86.9,1.23.17.11.82.43,1.95.95.97.46,1.66.96,2.09,1.52.43.56.64,1.23.64,2.01,0,1.01-.36,1.83-1.09,2.45-.73.62-1.67.93-2.83.93-.75,0-1.4-.08-1.94-.25-.54-.17-1.15-.45-1.83-.86v-2.24c1.26,1.05,2.45,1.57,3.56,1.57.56,0,1.01-.12,1.35-.36s.51-.56.51-.96c0-.55-.3-.99-.89-1.33-.49-.27-1.13-.59-1.92-.97-.93-.42-1.62-.91-2.08-1.48s-.69-1.22-.69-1.96c0-.99.37-1.78,1.11-2.37.74-.59,1.71-.88,2.92-.88Z"/>
    <path class="st4" d="M126.78,83.99c.92,0,1.75.18,2.49.53v1.76c-.74-.43-1.43-.64-2.09-.64-.71,0-1.29.22-1.74.66-.45.44-.67,1.04-.67,1.79s.23,1.33.68,1.78,1.06.67,1.81.67c.56,0,1.28-.19,2.16-.56v1.68c-.82.33-1.66.5-2.52.5-1.28,0-2.31-.37-3.11-1.1-.8-.73-1.19-1.7-1.19-2.91s.39-2.26,1.17-3.03c.78-.77,1.79-1.15,3.02-1.15Z"/>
    <path class="st4" d="M135.47,83.99c.28,0,.55.06.81.19.27.12.58.33.93.62l-.74,1.81c-.6-.45-1.09-.68-1.45-.68-.32,0-.64.12-.95.36-.31.24-.56.56-.75.95-.19.39-.28.79-.28,1.18v3.59h-2.08v-7.88h2.08v2.01h.03c.38-.76.76-1.31,1.14-1.65.38-.34.8-.51,1.26-.51Z"/>
    <path class="st4" d="M139.29,80.5c.32,0,.6.12.83.35.23.23.35.51.35.83s-.11.58-.34.82c-.23.24-.5.36-.83.36s-.59-.12-.82-.36c-.23-.24-.35-.51-.35-.82,0-.33.12-.6.35-.83.24-.23.51-.34.82-.34ZM140.33,84.14v7.88h-2.08v-7.88h2.08Z"/>
    <path class="st4" d="M147.04,83.99c.61,0,1.12.14,1.54.43.42.28.73.67.94,1.14.44-.55.89-.94,1.33-1.19.44-.25.93-.38,1.46-.38.83,0,1.5.27,2.02.81.51.54.77,1.27.77,2.17v5.05h-2.08v-4.7c0-.55-.12-.98-.35-1.29s-.57-.47-1.02-.47c-.64,0-1.25.41-1.83,1.22v5.24h-2.07v-4.73c0-.54-.12-.96-.37-1.27-.25-.31-.58-.46-1-.46-.34,0-.65.1-.93.29-.28.19-.58.5-.9.93v5.24h-2.08v-7.88h2.08v1.11c.38-.43.76-.74,1.15-.95.39-.21.84-.31,1.34-.31Z"/>
    <path class="st4" d="M161.66,83.99c.61,0,1.12.14,1.54.43.42.28.73.67.94,1.14.44-.55.89-.94,1.33-1.19.44-.25.93-.38,1.46-.38.83,0,1.5.27,2.02.81.51.54.77,1.27.77,2.17v5.05h-2.08v-4.7c0-.55-.12-.98-.35-1.29s-.57-.47-1.02-.47c-.64,0-1.25.41-1.83,1.22v5.24h-2.07v-4.73c0-.54-.12-.96-.37-1.27-.25-.31-.58-.46-1-.46-.34,0-.65.1-.93.29-.28.19-.58.5-.9.93v5.24h-2.08v-7.88h2.08v1.11c.38-.43.76-.74,1.15-.95.39-.21.84-.31,1.34-.31Z"/>
    <path class="st4" d="M174.55,83.99c1.01,0,1.79.22,2.32.65.53.43.8,1.03.8,1.8v3.86c0,.3.12.45.36.45.1,0,.24-.04.43-.13.18-.09.34-.19.46-.3v1.2c-.73.44-1.39.67-1.99.67-.37,0-.66-.06-.86-.19-.2-.12-.34-.34-.42-.66-.79.56-1.59.84-2.39.84-.57,0-1.06-.19-1.46-.57-.41-.38-.61-.84-.61-1.38,0-.68.2-1.22.61-1.61.41-.39,1.11-.74,2.13-1.03l1.68-.49v-.36c0-.77-.47-1.16-1.4-1.16-.48,0-.95.11-1.43.33-.47.22-.9.54-1.29.97v-1.86c.86-.68,1.88-1.02,3.06-1.02ZM173.29,89.91c0,.29.09.52.27.69s.41.26.68.26c.46,0,.91-.21,1.37-.62v-2.08c-.58.2-1.03.38-1.36.56s-.57.35-.73.53c-.15.18-.23.4-.23.66Z"/>
    <path class="st4" d="M187.34,84.14v1.47h-1.35c.22.27.37.52.46.75.09.23.13.47.13.74,0,.63-.24,1.21-.71,1.73-.42.46-1.13.75-2.14.89-.55.07-.91.15-1.08.23-.18.09-.27.22-.27.4,0,.16.11.29.32.38.22.09.56.17,1.04.25,1.19.19,2.06.48,2.62.88s.84.91.84,1.56c0,.83-.34,1.47-1.02,1.92s-1.66.67-2.94.67c-1.21,0-2.17-.21-2.89-.63s-1.07-.99-1.07-1.7c0-1,.69-1.69,2.07-2.08-.6-.26-.89-.6-.89-1.02,0-.55.45-.93,1.35-1.14v-.03c-.61-.17-1.1-.47-1.46-.9s-.54-.94-.54-1.52c0-.85.32-1.53.96-2.05.64-.52,1.48-.78,2.51-.78h4.06ZM181.22,93.58c0,.7.7,1.05,2.11,1.05.61,0,1.08-.1,1.43-.29.35-.19.52-.45.52-.76,0-.35-.2-.61-.59-.79-.39-.18-.94-.27-1.66-.27-.53,0-.97.1-1.31.3-.34.2-.51.45-.51.76ZM181.72,86.99c0,.41.15.75.43,1.03s.64.41,1.06.41.78-.14,1.05-.43c.28-.28.41-.64.41-1.08,0-.39-.14-.71-.43-.97-.29-.26-.63-.39-1.04-.39s-.77.14-1.06.43c-.29.28-.43.62-.43,1.01Z"/>
    <path class="st4" d="M192.06,83.99c1.16,0,2.08.37,2.75,1.11.67.74,1.01,1.77,1.01,3.08v.31h-5.58c.08.7.35,1.24.79,1.62.44.38,1.05.57,1.82.57.49,0,.97-.09,1.43-.26.46-.17.93-.43,1.42-.78v1.54c-.92.65-2.04.98-3.36.98-1.24,0-2.26-.37-3.05-1.12s-1.18-1.74-1.18-2.99.36-2.18,1.09-2.94,1.68-1.14,2.85-1.14ZM193.87,87.24c-.06-.57-.23-1.02-.52-1.35-.29-.32-.69-.49-1.21-.49s-.94.15-1.26.46-.52.77-.6,1.37h3.59Z"/>
    <path class="st4" d="M198.23,90.1c.29,0,.53.1.73.31.2.2.3.45.3.74s-.1.52-.3.72c-.2.2-.45.3-.73.3s-.51-.1-.72-.3c-.2-.2-.3-.44-.3-.72s.1-.53.3-.74.44-.31.73-.31ZM198.36,84.11c.29,0,.53.1.73.3.2.2.3.45.3.73s-.1.52-.3.72-.45.3-.73.3-.51-.1-.71-.3c-.2-.2-.3-.44-.3-.72s.1-.53.3-.73c.2-.2.44-.3.72-.3Z"/>
    <path class="st4" d="M201.41,80.22h9.85v1.5h-4.11v10.3h-1.7v-10.3h-4.04v-1.5Z"/>
    <path class="st4" d="M219.75,84.26h1.65l-3.43,7.9h-.49l-2.29-5.41-2.27,5.41h-.5l-3.46-7.9h1.65l2.03,4.71,1.98-4.71h1.14l1.96,4.71,2.03-4.71Z"/>
    <path class="st4" d="M225.84,84.24c1.18,0,2.16.38,2.94,1.14s1.17,1.72,1.17,2.87-.4,2.05-1.19,2.79c-.79.74-1.79,1.11-3,1.11s-2.14-.38-2.92-1.13-1.17-1.69-1.17-2.81.4-2.08,1.19-2.84c.79-.76,1.78-1.13,2.97-1.13ZM225.76,85.63c-.74,0-1.34.24-1.81.73-.47.48-.71,1.1-.71,1.85s.24,1.35.73,1.82,1.11.7,1.86.7,1.37-.24,1.85-.71c.48-.48.72-1.08.72-1.83s-.25-1.35-.75-1.83-1.13-.73-1.89-.73Z"/>
    <path class="st4" d="M243.08,88.28h-5.46c.04.74.29,1.33.75,1.77.46.44,1.05.66,1.78.66,1.01,0,1.95-.31,2.8-.94v1.5c-.47.31-.94.54-1.4.67-.46.14-1.01.2-1.63.2-.85,0-1.55-.18-2.08-.53-.53-.35-.95-.83-1.27-1.43s-.48-1.29-.48-2.08c0-1.18.33-2.14,1-2.88s1.54-1.11,2.61-1.11,1.85.36,2.46,1.08c.61.72.92,1.69.92,2.89v.19ZM237.66,87.36h3.91c-.04-.61-.22-1.09-.55-1.42-.33-.33-.77-.5-1.32-.5s-1,.17-1.35.5c-.35.33-.58.8-.69,1.42Z"/>
    <path class="st4" d="M248.41,84.26h2.91v11.72h-1.54v-4.09c-.67.18-1.24.27-1.7.27-1.1,0-2.02-.37-2.74-1.11-.72-.74-1.08-1.69-1.08-2.83,0-1.21.37-2.17,1.12-2.89s1.76-1.07,3.02-1.07ZM249.78,90.55v-4.86h-.97c-.67,0-1.11.03-1.33.09s-.42.14-.58.24c-.16.1-.31.23-.45.38-.42.48-.63,1.07-.63,1.77,0,.79.24,1.44.71,1.94.48.5,1.09.75,1.85.75.17,0,.32-.01.43-.03s.36-.1.74-.22l.12-.03.11-.03Z"/>
    <path class="st4" d="M258.33,92.02v-1c-.33.36-.7.63-1.12.83-.42.2-.84.3-1.25.3-.49,0-.94-.12-1.35-.37s-.73-.58-.94-1-.32-1.12-.32-2.09v-4.45h1.54v4.42c0,.81.12,1.38.35,1.71.23.32.64.48,1.23.48.73,0,1.35-.36,1.86-1.07v-5.54h1.54v7.76h-1.54Z"/>
    <path class="st4" d="M266.9,87.36v3.3c0,.26.09.4.27.4s.48-.14.87-.41v.94c-.35.23-.63.38-.84.46s-.43.12-.66.12c-.66,0-1.05-.26-1.16-.78-.65.51-1.35.76-2.08.76-.54,0-.99-.18-1.35-.54-.36-.36-.54-.81-.54-1.35,0-.49.18-.93.53-1.31.35-.39.85-.69,1.5-.92l1.97-.68v-.41c0-.93-.47-1.4-1.4-1.4-.84,0-1.65.43-2.45,1.3v-1.68c.6-.7,1.45-1.05,2.57-1.05.84,0,1.51.22,2.02.66.17.14.32.33.46.56.13.23.22.47.26.7.04.23.05.68.05,1.33ZM265.39,90.49v-2.3l-1.03.4c-.52.21-.89.42-1.11.63-.22.21-.32.47-.32.79s.1.58.31.78c.21.2.47.3.8.3.49,0,.94-.2,1.36-.6Z"/>
    <path class="st4" d="M269.43,80.24h1.54v11.79h-1.54v-11.79Z"/>
    <path class="st4" d="M276.9,85.49l2.89-2.83v1.6h2.46v1.38h-2.46v3.8c0,.89.37,1.33,1.1,1.33.55,0,1.13-.18,1.75-.55v1.43c-.59.33-1.23.5-1.93.5s-1.29-.21-1.75-.62c-.15-.12-.27-.26-.36-.42s-.18-.36-.24-.61c-.06-.25-.1-.73-.1-1.43v-3.44h-1.35v-.15Z"/>
    <path class="st4" d="M290.36,88.28h-5.46c.04.74.29,1.33.75,1.77.46.44,1.05.66,1.78.66,1.01,0,1.95-.31,2.8-.94v1.5c-.47.31-.94.54-1.4.67-.46.14-1.01.2-1.63.2-.85,0-1.55-.18-2.08-.53-.53-.35-.95-.83-1.27-1.43s-.48-1.29-.48-2.08c0-1.18.33-2.14,1-2.88s1.54-1.11,2.61-1.11,1.85.36,2.46,1.08c.61.72.92,1.69.92,2.89v.19ZM284.93,87.36h3.91c-.04-.61-.22-1.09-.55-1.42-.33-.33-.77-.5-1.32-.5s-1,.17-1.35.5c-.35.33-.58.8-.69,1.42Z"/>
    <path class="st4" d="M296.9,87.36v3.3c0,.26.09.4.27.4s.48-.14.87-.41v.94c-.35.23-.63.38-.84.46s-.43.12-.66.12c-.66,0-1.05-.26-1.16-.78-.65.51-1.35.76-2.08.76-.54,0-.99-.18-1.35-.54-.36-.36-.54-.81-.54-1.35,0-.49.18-.93.53-1.31.35-.39.85-.69,1.5-.92l1.97-.68v-.41c0-.93-.47-1.4-1.4-1.4-.84,0-1.65.43-2.45,1.3v-1.68c.6-.7,1.45-1.05,2.57-1.05.84,0,1.51.22,2.02.66.17.14.32.33.46.56.13.23.22.47.26.7.04.23.05.68.05,1.33ZM295.39,90.49v-2.3l-1.03.4c-.52.21-.89.42-1.11.63-.22.21-.32.47-.32.79s.1.58.31.78c.21.2.47.3.8.3.49,0,.94-.2,1.36-.6Z"/>
    <path class="st4" d="M305.76,86.39v5.64h-1.54v-4.32c0-.86-.12-1.46-.35-1.8-.23-.34-.63-.51-1.21-.51-.32,0-.61.07-.88.22-.27.15-.57.41-.92.78v5.64h-1.54v-7.76h1.54v1.02c.78-.78,1.55-1.17,2.29-1.17.98,0,1.75.47,2.29,1.4.82-.95,1.68-1.42,2.57-1.42.75,0,1.37.28,1.86.83.49.55.73,1.39.73,2.52v4.58h-1.54v-4.6c0-.65-.13-1.14-.4-1.48-.26-.34-.64-.51-1.14-.51-.64,0-1.23.32-1.78.96Z"/>
    <path class="st4" d="M312.34,91.47v-1.65c.43.3.88.55,1.33.74s.83.28,1.14.28.6-.08.83-.24c.23-.16.35-.35.35-.57s-.07-.41-.22-.56c-.15-.15-.47-.36-.97-.65-.99-.55-1.64-1.02-1.94-1.41-.31-.39-.46-.82-.46-1.28,0-.6.23-1.08.7-1.46.46-.38,1.06-.57,1.79-.57s1.54.21,2.34.64v1.52c-.91-.55-1.66-.83-2.24-.83-.3,0-.54.06-.72.19-.18.13-.27.29-.27.5,0,.18.08.35.25.52.17.16.46.36.87.59l.55.31c1.29.73,1.94,1.54,1.94,2.43,0,.64-.25,1.16-.75,1.56-.5.41-1.14.61-1.92.61-.46,0-.87-.05-1.23-.15-.36-.1-.81-.28-1.36-.54Z"/>
    <path class="st4" d="M320.16,90.14c.29,0,.53.1.73.29.2.2.3.44.3.73s-.1.52-.3.71c-.2.19-.45.29-.74.29s-.53-.1-.73-.29c-.2-.19-.29-.43-.29-.71s.1-.53.29-.73c.2-.2.44-.29.73-.29Z"/>
    <path class="st4" d="M326.34,92.02v-11.8h3.74c1.12,0,2.02.3,2.69.91.67.61,1,1.42,1,2.45,0,.69-.17,1.29-.51,1.82-.34.53-.81.91-1.41,1.15s-1.45.36-2.56.36h-1.25v5.11h-1.7ZM329.79,81.72h-1.75v3.69h1.85c.69,0,1.21-.16,1.59-.48.37-.32.56-.79.56-1.39,0-1.21-.75-1.81-2.24-1.81Z"/>
    <path class="st4" d="M335.07,80.24h1.54v11.79h-1.54v-11.79Z"/>
    <path class="st4" d="M343.7,87.36v3.3c0,.26.09.4.27.4s.48-.14.87-.41v.94c-.35.23-.63.38-.84.46s-.43.12-.66.12c-.66,0-1.05-.26-1.16-.78-.65.51-1.35.76-2.08.76-.54,0-.99-.18-1.35-.54-.36-.36-.54-.81-.54-1.35,0-.49.18-.93.53-1.31.35-.39.85-.69,1.5-.92l1.97-.68v-.41c0-.93-.47-1.4-1.4-1.4-.84,0-1.65.43-2.45,1.3v-1.68c.6-.7,1.45-1.05,2.57-1.05.84,0,1.51.22,2.02.66.17.14.32.33.46.56.13.23.22.47.26.7.04.23.05.68.05,1.33ZM342.19,90.49v-2.3l-1.03.4c-.52.21-.89.42-1.11.63-.22.21-.32.47-.32.79s.1.58.31.78c.21.2.47.3.8.3.49,0,.94-.2,1.36-.6Z"/>
    <path class="st4" d="M350.27,84.26h1.72l-5.5,11.72h-1.71l2.64-5.62-3-6.1h1.75l2.1,4.38,2.01-4.38Z"/>
    <path class="st4" d="M359.34,88.28h-5.46c.04.74.29,1.33.75,1.77.46.44,1.05.66,1.78.66,1.01,0,1.95-.31,2.8-.94v1.5c-.47.31-.94.54-1.4.67-.46.14-1.01.2-1.63.2-.85,0-1.55-.18-2.08-.53-.53-.35-.95-.83-1.27-1.43s-.48-1.29-.48-2.08c0-1.18.33-2.14,1-2.88s1.54-1.11,2.61-1.11,1.85.36,2.46,1.08c.61.72.92,1.69.92,2.89v.19ZM353.92,87.36h3.91c-.04-.61-.22-1.09-.55-1.42-.33-.33-.77-.5-1.32-.5s-1,.17-1.35.5c-.35.33-.58.8-.69,1.42Z"/>
    <path class="st4" d="M362.65,84.26v1.78l.08-.13c.74-1.2,1.48-1.8,2.23-1.8.58,0,1.18.29,1.81.88l-.81,1.35c-.53-.51-1.03-.76-1.49-.76-.49,0-.92.24-1.29.71-.36.47-.54,1.03-.54,1.68v4.06h-1.54v-7.76h1.54Z"/>
    <path class="st4" d="M367.47,91.47v-1.65c.43.3.88.55,1.33.74s.83.28,1.14.28.6-.08.83-.24c.23-.16.35-.35.35-.57s-.07-.41-.22-.56c-.15-.15-.47-.36-.97-.65-.99-.55-1.64-1.02-1.94-1.41-.31-.39-.46-.82-.46-1.28,0-.6.23-1.08.7-1.46.46-.38,1.06-.57,1.79-.57s1.54.21,2.34.64v1.52c-.91-.55-1.66-.83-2.24-.83-.3,0-.54.06-.72.19-.18.13-.27.29-.27.5,0,.18.08.35.25.52.17.16.46.36.87.59l.55.31c1.29.73,1.94,1.54,1.94,2.43,0,.64-.25,1.16-.75,1.56-.5.41-1.14.61-1.92.61-.46,0-.87-.05-1.23-.15-.36-.1-.81-.28-1.36-.54Z"/>
    <path class="st4" d="M379.2,95.98v-11.72h2.69c1.38,0,2.45.34,3.21,1.03.77.69,1.15,1.65,1.15,2.88,0,1.16-.36,2.12-1.08,2.87s-1.64,1.12-2.76,1.12c-.49,0-1.04-.11-1.64-.33v4.15h-1.57ZM381.85,85.69h-1.09v4.78c.47.24.97.36,1.48.36.72,0,1.31-.25,1.76-.75.46-.5.69-1.15.69-1.93,0-.51-.11-.95-.32-1.34-.22-.39-.51-.67-.88-.85-.37-.18-.92-.27-1.64-.27Z"/>
    <path class="st4" d="M387.97,80.24h1.54v11.79h-1.54v-11.79Z"/>
    <path class="st4" d="M396.6,87.36v3.3c0,.26.09.4.27.4s.48-.14.87-.41v.94c-.35.23-.63.38-.84.46s-.43.12-.66.12c-.66,0-1.05-.26-1.16-.78-.65.51-1.35.76-2.08.76-.54,0-.99-.18-1.35-.54-.36-.36-.54-.81-.54-1.35,0-.49.18-.93.53-1.31.35-.39.85-.69,1.5-.92l1.97-.68v-.41c0-.93-.47-1.4-1.4-1.4-.84,0-1.65.43-2.45,1.3v-1.68c.6-.7,1.45-1.05,2.57-1.05.84,0,1.51.22,2.02.66.17.14.32.33.46.56.13.23.22.47.26.7.04.23.05.68.05,1.33ZM395.09,90.49v-2.3l-1.03.4c-.52.21-.89.42-1.11.63-.22.21-.32.47-.32.79s.1.58.31.78c.21.2.47.3.8.3.49,0,.94-.2,1.36-.6Z"/>
    <path class="st4" d="M403.17,84.26h1.72l-5.5,11.72h-1.71l2.64-5.62-3-6.1h1.75l2.1,4.38,2.01-4.38Z"/>
    <path class="st4" d="M415.65,87.36v3.3c0,.26.09.4.27.4s.48-.14.87-.41v.94c-.35.23-.63.38-.84.46s-.43.12-.66.12c-.66,0-1.05-.26-1.16-.78-.65.51-1.35.76-2.08.76-.54,0-.99-.18-1.35-.54-.36-.36-.54-.81-.54-1.35,0-.49.18-.93.53-1.31.35-.39.85-.69,1.5-.92l1.97-.68v-.41c0-.93-.47-1.4-1.4-1.4-.84,0-1.65.43-2.45,1.3v-1.68c.6-.7,1.45-1.05,2.57-1.05.84,0,1.51.22,2.02.66.17.14.32.33.46.56.13.23.22.47.26.7.04.23.05.68.05,1.33ZM414.14,90.49v-2.3l-1.03.4c-.52.21-.89.42-1.11.63-.22.21-.32.47-.32.79s.1.58.31.78c.21.2.47.3.8.3.49,0,.94-.2,1.36-.6Z"/>
    <path class="st4" d="M424.6,84.26v1.78l.08-.13c.74-1.2,1.48-1.8,2.23-1.8.58,0,1.18.29,1.81.88l-.81,1.35c-.53-.51-1.03-.76-1.49-.76-.5,0-.92.24-1.29.71-.36.47-.54,1.03-.54,1.68v4.06h-1.54v-7.76h1.54Z"/>
    <path class="st4" d="M436.06,88.28h-5.46c.04.74.29,1.33.75,1.77.46.44,1.05.66,1.78.66,1.01,0,1.95-.31,2.8-.94v1.5c-.47.31-.94.54-1.4.67-.46.14-1.01.2-1.63.2-.86,0-1.55-.18-2.08-.53-.53-.35-.95-.83-1.27-1.43-.32-.6-.48-1.29-.48-2.08,0-1.18.33-2.14,1-2.88.67-.74,1.54-1.11,2.61-1.11s1.85.36,2.46,1.08c.61.72.92,1.69.92,2.89v.19ZM430.64,87.36h3.91c-.04-.61-.22-1.09-.55-1.42-.33-.33-.77-.5-1.32-.5s-1,.17-1.35.5c-.35.33-.58.8-.69,1.42Z"/>
    <path class="st4" d="M437.33,86.94c0-.83.3-1.48.91-1.96s1.43-.72,2.48-.72h3.2v1.2h-1.57c.3.31.51.59.63.84.12.25.18.54.18.87,0,.4-.12.8-.35,1.19-.23.39-.53.69-.89.9-.36.21-.96.37-1.78.5-.58.08-.87.28-.87.6,0,.18.11.33.33.44.22.12.61.23,1.18.36.95.21,1.56.37,1.83.49s.52.29.74.51c.37.37.56.84.56,1.4,0,.74-.33,1.32-.98,1.76-.66.44-1.53.66-2.63.66s-1.99-.22-2.65-.66c-.66-.44-.99-1.03-.99-1.78,0-1.05.65-1.73,1.95-2.03-.52-.33-.78-.66-.78-.99,0-.25.11-.47.33-.67.22-.2.52-.35.9-.45-1.14-.51-1.71-1.32-1.71-2.46ZM439.85,92.39c-.52,0-.94.11-1.27.33-.33.22-.49.5-.49.84,0,.8.72,1.2,2.16,1.2.68,0,1.21-.1,1.58-.3s.56-.48.56-.85-.24-.65-.71-.88c-.47-.23-1.08-.34-1.83-.34ZM440.22,85.59c-.42,0-.77.14-1.06.42-.29.28-.44.62-.44,1.01s.14.73.43.99c.29.26.65.39,1.09.39s.79-.13,1.08-.4c.29-.27.43-.6.43-1s-.15-.74-.44-1.01c-.29-.27-.66-.4-1.1-.4Z"/>
    <path class="st4" d="M450.05,92.02v-1c-.33.36-.7.63-1.12.83s-.84.3-1.25.3c-.49,0-.94-.12-1.35-.37s-.73-.58-.94-1-.32-1.12-.32-2.09v-4.45h1.54v4.42c0,.81.12,1.38.35,1.71.23.32.64.48,1.23.48.73,0,1.35-.36,1.87-1.07v-5.54h1.54v7.76h-1.54Z"/>
    <path class="st4" d="M453.77,80.24h1.54v11.79h-1.54v-11.79Z"/>
    <path class="st4" d="M462.41,87.36v3.3c0,.26.09.4.27.4s.48-.14.87-.41v.94c-.35.23-.63.38-.84.46s-.43.12-.66.12c-.66,0-1.05-.26-1.16-.78-.65.51-1.35.76-2.08.76-.54,0-.99-.18-1.35-.54-.36-.36-.54-.81-.54-1.35,0-.49.18-.93.53-1.31.35-.39.85-.69,1.5-.92l1.97-.68v-.41c0-.93-.47-1.4-1.4-1.4-.84,0-1.65.43-2.45,1.3v-1.68c.6-.7,1.45-1.05,2.57-1.05.84,0,1.51.22,2.02.66.17.14.32.33.46.56s.22.47.26.7c.04.23.05.68.05,1.33ZM460.9,90.49v-2.3l-1.03.4c-.52.21-.89.42-1.11.63-.22.21-.33.47-.33.79s.1.58.31.78c.21.2.47.3.8.3.49,0,.94-.2,1.36-.6Z"/>
    <path class="st4" d="M466.55,84.26v1.78l.08-.13c.74-1.2,1.48-1.8,2.23-1.8.58,0,1.18.29,1.81.88l-.81,1.35c-.53-.51-1.03-.76-1.49-.76-.5,0-.92.24-1.29.71-.36.47-.54,1.03-.54,1.68v4.06h-1.54v-7.76h1.54Z"/>
    <path class="st4" d="M35.51,107.68c0-.83.3-1.48.91-1.96.6-.48,1.43-.72,2.48-.72h3.2v1.2h-1.57c.3.31.51.59.63.84.12.25.18.54.18.87,0,.4-.12.8-.35,1.19-.23.39-.53.69-.89.9-.36.21-.96.37-1.78.5-.58.08-.87.28-.87.6,0,.18.11.33.32.44.22.12.61.23,1.18.36.95.21,1.56.37,1.83.49s.52.29.74.51c.37.37.56.84.56,1.4,0,.74-.33,1.33-.98,1.76-.66.44-1.53.66-2.63.66s-1.99-.22-2.65-.66c-.66-.44-.99-1.03-.99-1.78,0-1.05.65-1.73,1.95-2.03-.52-.33-.78-.66-.78-.99,0-.25.11-.47.33-.67.22-.2.52-.35.9-.45-1.14-.51-1.71-1.32-1.71-2.46ZM38.03,113.12c-.52,0-.94.11-1.27.33s-.49.5-.49.84c0,.8.72,1.2,2.16,1.2.68,0,1.21-.1,1.58-.3.37-.2.56-.48.56-.85s-.24-.65-.71-.88c-.47-.23-1.08-.34-1.83-.34ZM38.4,106.33c-.42,0-.77.14-1.06.42s-.44.62-.44,1.01.14.73.43.99c.29.26.65.39,1.09.39s.79-.13,1.08-.4c.29-.27.43-.6.43-1s-.15-.74-.44-1.01-.66-.4-1.1-.4Z"/>
    <path class="st4" d="M48.16,108.09v3.3c0,.26.09.4.27.4s.48-.14.87-.41v.94c-.35.23-.63.38-.84.46s-.43.12-.66.12c-.66,0-1.05-.26-1.16-.78-.65.51-1.35.76-2.08.76-.54,0-.99-.18-1.35-.54-.36-.36-.54-.81-.54-1.35,0-.49.18-.93.53-1.31.35-.39.85-.69,1.5-.92l1.97-.68v-.41c0-.93-.47-1.4-1.4-1.4-.84,0-1.65.43-2.45,1.3v-1.68c.6-.7,1.45-1.05,2.57-1.05.84,0,1.51.22,2.02.66.17.14.32.33.46.56.13.23.22.47.26.7.04.23.05.68.05,1.33ZM46.65,111.22v-2.3l-1.03.4c-.52.21-.89.42-1.11.63-.22.21-.32.47-.32.79s.1.58.31.78c.21.2.47.3.8.3.49,0,.94-.2,1.36-.6Z"/>
    <path class="st4" d="M57.02,107.12v5.64h-1.54v-4.32c0-.86-.12-1.46-.35-1.8-.23-.34-.63-.51-1.21-.51-.32,0-.61.07-.88.22-.27.15-.57.41-.92.78v5.64h-1.54v-7.76h1.54v1.02c.78-.78,1.55-1.17,2.29-1.17.98,0,1.75.47,2.29,1.4.82-.95,1.68-1.42,2.57-1.42.75,0,1.37.28,1.86.83.49.55.73,1.39.73,2.52v4.58h-1.54v-4.6c0-.65-.13-1.14-.4-1.48-.26-.34-.64-.51-1.14-.51-.64,0-1.23.32-1.78.96Z"/>
    <path class="st4" d="M70.59,109.01h-5.46c.04.74.29,1.33.75,1.77.46.44,1.05.66,1.78.66,1.01,0,1.95-.31,2.8-.94v1.5c-.47.31-.94.54-1.4.67-.46.14-1.01.2-1.63.2-.85,0-1.55-.18-2.08-.53-.53-.35-.95-.83-1.27-1.43s-.48-1.29-.48-2.08c0-1.18.33-2.14,1-2.88s1.54-1.11,2.61-1.11,1.85.36,2.46,1.08c.61.72.92,1.69.92,2.89v.19ZM65.17,108.09h3.91c-.04-.61-.22-1.09-.55-1.42-.33-.33-.77-.5-1.32-.5s-1,.17-1.35.5c-.35.33-.58.8-.69,1.42Z"/>
    <path class="st4" d="M72.36,114.8v-.31c.25-.24.43-.49.53-.73.1-.24.16-.58.18-1-.6-.17-.89-.54-.89-1.11,0-.3.1-.57.31-.79.21-.22.45-.33.73-.33.34,0,.62.15.84.46.22.3.33.69.33,1.16,0,.62-.18,1.17-.54,1.65s-.85.81-1.48,1Z"/>
    <path class="st4" d="M79.39,100.97h1.54v4.58c.66-.48,1.37-.73,2.13-.73.98,0,1.79.37,2.41,1.11.62.74.94,1.7.94,2.86,0,1.25-.37,2.24-1.12,2.98-.75.74-1.74,1.11-2.99,1.11-.5,0-1.03-.05-1.58-.16s-.99-.24-1.32-.4v-11.36ZM80.93,107.02v4.2c.52.16,1.06.24,1.61.24.68,0,1.24-.24,1.67-.73s.65-1.11.65-1.86-.2-1.4-.6-1.88c-.4-.48-.93-.73-1.57-.73-.57,0-1.16.25-1.75.76Z"/>
    <path class="st4" d="M93.05,112.76v-1c-.33.36-.7.63-1.12.83-.42.2-.84.3-1.25.3-.49,0-.94-.12-1.35-.37s-.73-.58-.94-1-.32-1.12-.32-2.09v-4.45h1.54v4.42c0,.81.12,1.38.35,1.71.23.32.64.48,1.23.48.73,0,1.35-.36,1.86-1.07v-5.54h1.54v7.76h-1.54Z"/>
    <path class="st4" d="M95.65,106.23l2.89-2.83v1.6h2.46v1.38h-2.46v3.8c0,.89.37,1.33,1.1,1.33.55,0,1.13-.18,1.75-.55v1.43c-.59.33-1.23.5-1.93.5s-1.29-.21-1.75-.62c-.15-.12-.27-.26-.36-.42s-.18-.36-.24-.61c-.06-.25-.1-.73-.1-1.43v-3.44h-1.35v-.15Z"/>
    <path class="st4" d="M117,105h1.65l-3.43,7.9h-.49l-2.29-5.41-2.27,5.41h-.5l-3.46-7.9h1.65l2.03,4.71,1.98-4.71h1.14l1.96,4.71,2.03-4.71Z"/>
    <path class="st4" d="M120.52,101.73c.25,0,.47.09.65.26s.27.39.27.64-.09.46-.27.64c-.18.18-.4.27-.65.27-.24,0-.44-.09-.62-.27-.18-.18-.27-.4-.27-.64s.09-.45.27-.63c.18-.18.39-.27.62-.27ZM119.76,105h1.54v7.76h-1.54v-7.76Z"/>
    <path class="st4" d="M122.43,106.23l2.89-2.83v1.6h2.46v1.38h-2.46v3.8c0,.89.37,1.33,1.1,1.33.55,0,1.13-.18,1.75-.55v1.43c-.59.33-1.23.5-1.93.5s-1.29-.21-1.75-.62c-.15-.12-.27-.26-.36-.42s-.18-.36-.24-.61c-.06-.25-.1-.73-.1-1.43v-3.44h-1.35v-.15Z"/>
    <path class="st4" d="M129.23,100.97h1.54v5.05c.64-.78,1.44-1.17,2.39-1.17.52,0,.98.13,1.39.39s.72.62.92,1.07.3,1.13.3,2.03v4.42h-1.54v-4.8c0-.57-.14-1.03-.42-1.37-.28-.35-.65-.52-1.1-.52-.34,0-.66.09-.95.26-.3.17-.63.46-.99.87v5.56h-1.54v-11.79Z"/>
    <path class="st4" d="M144.25,105v.99c.69-.76,1.47-1.14,2.34-1.14.48,0,.93.13,1.35.38.42.25.73.59.95,1.03.22.44.33,1.13.33,2.07v4.44h-1.54v-4.42c0-.79-.12-1.36-.36-1.7-.24-.34-.65-.51-1.22-.51-.73,0-1.34.36-1.85,1.09v5.54h-1.57v-7.76h1.57Z"/>
    <path class="st4" d="M155.06,104.98c1.18,0,2.16.38,2.94,1.14s1.17,1.72,1.17,2.87-.4,2.05-1.19,2.79c-.79.74-1.79,1.11-3,1.11s-2.14-.38-2.92-1.13-1.17-1.69-1.17-2.81.4-2.08,1.19-2.84c.79-.76,1.78-1.13,2.97-1.13ZM154.98,106.36c-.74,0-1.34.24-1.81.73-.47.48-.71,1.1-.71,1.85s.24,1.35.73,1.82,1.11.7,1.86.7,1.37-.24,1.85-.71c.48-.48.72-1.08.72-1.83s-.25-1.35-.75-1.83-1.13-.73-1.89-.73Z"/>
    <path class="st4" d="M165.29,107.68c0-.83.3-1.48.91-1.96.6-.48,1.43-.72,2.48-.72h3.2v1.2h-1.57c.3.31.51.59.63.84.12.25.18.54.18.87,0,.4-.12.8-.35,1.19-.23.39-.53.69-.89.9-.36.21-.96.37-1.78.5-.58.08-.87.28-.87.6,0,.18.11.33.32.44.22.12.61.23,1.18.36.95.21,1.56.37,1.83.49s.52.29.74.51c.37.37.56.84.56,1.4,0,.74-.33,1.33-.98,1.76-.66.44-1.53.66-2.63.66s-1.99-.22-2.65-.66c-.66-.44-.99-1.03-.99-1.78,0-1.05.65-1.73,1.95-2.03-.52-.33-.78-.66-.78-.99,0-.25.11-.47.33-.67.22-.2.52-.35.9-.45-1.14-.51-1.71-1.32-1.71-2.46ZM167.81,113.12c-.52,0-.94.11-1.27.33s-.49.5-.49.84c0,.8.72,1.2,2.16,1.2.68,0,1.21-.1,1.58-.3.37-.2.56-.48.56-.85s-.24-.65-.71-.88c-.47-.23-1.08-.34-1.83-.34ZM168.17,106.33c-.42,0-.77.14-1.06.42s-.44.62-.44,1.01.14.73.43.99c.29.26.65.39,1.09.39s.79-.13,1.08-.4c.29-.27.43-.6.43-1s-.15-.74-.44-1.01-.66-.4-1.1-.4Z"/>
    <path class="st4" d="M176.6,104.98c1.18,0,2.16.38,2.94,1.14s1.17,1.72,1.17,2.87-.4,2.05-1.19,2.79c-.79.74-1.79,1.11-3,1.11s-2.14-.38-2.92-1.13-1.17-1.69-1.17-2.81.4-2.08,1.19-2.84c.79-.76,1.78-1.13,2.97-1.13ZM176.52,106.36c-.74,0-1.34.24-1.81.73-.47.48-.71,1.1-.71,1.85s.24,1.35.73,1.82,1.11.7,1.86.7,1.37-.24,1.85-.71c.48-.48.72-1.08.72-1.83s-.25-1.35-.75-1.83-1.13-.73-1.89-.73Z"/>
    <path class="st4" d="M187.3,108.09v3.3c0,.26.09.4.27.4s.48-.14.87-.41v.94c-.35.23-.63.38-.84.46s-.43.12-.66.12c-.66,0-1.05-.26-1.16-.78-.65.51-1.35.76-2.08.76-.54,0-.99-.18-1.35-.54-.36-.36-.54-.81-.54-1.35,0-.49.18-.93.53-1.31.35-.39.85-.69,1.5-.92l1.97-.68v-.41c0-.93-.47-1.4-1.4-1.4-.84,0-1.65.43-2.45,1.3v-1.68c.6-.7,1.45-1.05,2.57-1.05.84,0,1.51.22,2.02.66.17.14.32.33.46.56.13.23.22.47.26.7.04.23.05.68.05,1.33ZM185.79,111.22v-2.3l-1.03.4c-.52.21-.89.42-1.11.63-.22.21-.32.47-.32.79s.1.58.31.78c.21.2.47.3.8.3.49,0,.94-.2,1.36-.6Z"/>
    <path class="st4" d="M189.83,100.97h1.54v11.79h-1.54v-11.79Z"/>
    <path class="st4" d="M193.21,112.2v-1.65c.43.3.88.55,1.33.74s.83.28,1.14.28.6-.08.83-.24c.23-.16.35-.35.35-.57s-.07-.41-.22-.56c-.15-.15-.47-.36-.97-.65-.99-.55-1.64-1.02-1.94-1.41-.31-.39-.46-.82-.46-1.28,0-.6.23-1.08.7-1.46.46-.38,1.06-.57,1.79-.57s1.54.21,2.34.64v1.52c-.91-.55-1.66-.83-2.24-.83-.3,0-.54.06-.72.19-.18.13-.27.29-.27.5,0,.18.08.35.25.52.17.16.46.36.87.59l.55.31c1.29.73,1.94,1.54,1.94,2.43,0,.64-.25,1.16-.75,1.56-.5.41-1.14.61-1.92.61-.46,0-.87-.05-1.23-.15-.36-.1-.81-.28-1.36-.54Z"/>
    <path class="st4" d="M201.03,110.88c.29,0,.53.1.73.29.2.2.3.44.3.73s-.1.52-.3.71c-.2.19-.45.29-.74.29s-.53-.1-.73-.29c-.2-.19-.29-.43-.29-.71s.1-.53.29-.73c.2-.2.44-.29.73-.29Z"/>
    <path class="st4" d="M210.23,107.82l-1.28-.78c-.8-.49-1.38-.97-1.72-1.45-.34-.48-.51-1.02-.51-1.64,0-.93.32-1.68.97-2.26.64-.58,1.48-.87,2.51-.87s1.89.28,2.71.83v1.92c-.85-.82-1.76-1.23-2.74-1.23-.55,0-1,.13-1.36.38-.35.26-.53.58-.53.98,0,.35.13.68.39.99s.68.63,1.26.97l1.29.76c1.44.86,2.16,1.95,2.16,3.28,0,.94-.32,1.71-.95,2.3s-1.46.89-2.47.89c-1.16,0-2.22-.36-3.18-1.07v-2.14c.91,1.15,1.97,1.73,3.16,1.73.53,0,.97-.15,1.32-.44.35-.29.53-.66.53-1.11,0-.72-.52-1.4-1.55-2.04Z"/>
    <path class="st4" d="M220.83,110.94v1.52c-.77.29-1.52.43-2.26.43-1.21,0-2.18-.36-2.91-1.08-.72-.72-1.08-1.68-1.08-2.89s.35-2.21,1.05-2.95,1.63-1.12,2.78-1.12c.4,0,.76.04,1.08.11.32.08.71.22,1.18.43v1.64c-.78-.5-1.5-.74-2.16-.74s-1.26.24-1.7.73c-.44.49-.67,1.11-.67,1.86,0,.79.24,1.42.72,1.89s1.13.7,1.94.7c.59,0,1.27-.17,2.03-.51Z"/>
    <path class="st4" d="M226.29,104.98c1.18,0,2.16.38,2.94,1.14s1.17,1.72,1.17,2.87-.4,2.05-1.19,2.79c-.79.74-1.79,1.11-3,1.11s-2.14-.38-2.92-1.13-1.17-1.69-1.17-2.81.4-2.08,1.19-2.84c.79-.76,1.78-1.13,2.97-1.13ZM226.21,106.36c-.74,0-1.34.24-1.81.73-.47.48-.71,1.1-.71,1.85s.24,1.35.73,1.82,1.11.7,1.86.7,1.37-.24,1.85-.71c.48-.48.72-1.08.72-1.83s-.25-1.35-.75-1.83-1.13-.73-1.89-.73Z"/>
    <path class="st4" d="M233.76,105v1.78l.08-.13c.74-1.2,1.48-1.8,2.23-1.8.58,0,1.18.29,1.81.88l-.81,1.35c-.53-.51-1.03-.76-1.49-.76-.49,0-.92.24-1.29.71-.36.47-.54,1.03-.54,1.68v4.06h-1.54v-7.76h1.54Z"/>
    <path class="st4" d="M239.75,101.73c.25,0,.47.09.65.26s.27.39.27.64-.09.46-.27.64c-.18.18-.4.27-.65.27-.24,0-.44-.09-.62-.27-.18-.18-.27-.4-.27-.64s.09-.45.27-.63c.18-.18.39-.27.62-.27ZM238.99,105h1.54v7.76h-1.54v-7.76Z"/>
    <path class="st4" d="M244.28,105v.99c.69-.76,1.47-1.14,2.34-1.14.48,0,.93.13,1.35.38.42.25.73.59.95,1.03.22.44.33,1.13.33,2.07v4.44h-1.54v-4.42c0-.79-.12-1.36-.36-1.7-.24-.34-.65-.51-1.22-.51-.73,0-1.34.36-1.85,1.09v5.54h-1.57v-7.76h1.57Z"/>
    <path class="st4" d="M250.99,107.68c0-.83.3-1.48.91-1.96.6-.48,1.43-.72,2.48-.72h3.2v1.2h-1.57c.3.31.51.59.63.84.12.25.18.54.18.87,0,.4-.12.8-.35,1.19-.23.39-.53.69-.89.9-.36.21-.96.37-1.78.5-.58.08-.87.28-.87.6,0,.18.11.33.32.44.22.12.61.23,1.18.36.95.21,1.56.37,1.83.49s.52.29.74.51c.37.37.56.84.56,1.4,0,.74-.33,1.33-.98,1.76-.66.44-1.53.66-2.63.66s-1.99-.22-2.65-.66c-.66-.44-.99-1.03-.99-1.78,0-1.05.65-1.73,1.95-2.03-.52-.33-.78-.66-.78-.99,0-.25.11-.47.33-.67.22-.2.52-.35.9-.45-1.14-.51-1.71-1.32-1.71-2.46ZM253.51,113.12c-.52,0-.94.11-1.27.33s-.49.5-.49.84c0,.8.72,1.2,2.16,1.2.68,0,1.21-.1,1.58-.3.37-.2.56-.48.56-.85s-.24-.65-.71-.88c-.47-.23-1.08-.34-1.83-.34ZM253.87,106.33c-.42,0-.77.14-1.06.42s-.44.62-.44,1.01.14.73.43.99c.29.26.65.39,1.09.39s.79-.13,1.08-.4c.29-.27.43-.6.43-1s-.15-.74-.44-1.01-.66-.4-1.1-.4Z"/>
    <path class="st4" d="M263.53,100.97h1.54v5.05c.64-.78,1.44-1.17,2.39-1.17.52,0,.98.13,1.39.39s.72.62.92,1.07.3,1.13.3,2.03v4.42h-1.54v-4.8c0-.57-.14-1.03-.42-1.37-.28-.35-.65-.52-1.1-.52-.34,0-.66.09-.95.26-.3.17-.63.46-.99.87v5.56h-1.54v-11.79Z"/>
    <path class="st4" d="M277.08,108.09v3.3c0,.26.09.4.27.4s.48-.14.87-.41v.94c-.35.23-.63.38-.84.46s-.43.12-.66.12c-.66,0-1.05-.26-1.16-.78-.65.51-1.35.76-2.08.76-.54,0-.99-.18-1.35-.54-.36-.36-.54-.81-.54-1.35,0-.49.18-.93.53-1.31.35-.39.85-.69,1.5-.92l1.97-.68v-.41c0-.93-.47-1.4-1.4-1.4-.84,0-1.65.43-2.45,1.3v-1.68c.6-.7,1.45-1.05,2.57-1.05.84,0,1.51.22,2.02.66.17.14.32.33.46.56.13.23.22.47.26.7.04.23.05.68.05,1.33ZM275.57,111.22v-2.3l-1.03.4c-.52.21-.89.42-1.11.63-.22.21-.32.47-.32.79s.1.58.31.78c.21.2.47.3.8.3.49,0,.94-.2,1.36-.6Z"/>
    <path class="st4" d="M279.3,116.71v-11.72h2.69c1.38,0,2.45.34,3.21,1.03.77.69,1.15,1.65,1.15,2.88,0,1.16-.36,2.12-1.08,2.87s-1.64,1.12-2.76,1.12c-.49,0-1.04-.11-1.64-.33v4.15h-1.57ZM281.96,106.43h-1.09v4.78c.47.24.97.36,1.48.36.72,0,1.31-.25,1.76-.75.46-.5.69-1.15.69-1.93,0-.51-.11-.95-.32-1.34-.22-.39-.51-.67-.88-.85-.37-.18-.92-.27-1.64-.27Z"/>
    <path class="st4" d="M287.94,116.71v-11.72h2.69c1.38,0,2.45.34,3.21,1.03.77.69,1.15,1.65,1.15,2.88,0,1.16-.36,2.12-1.08,2.87s-1.64,1.12-2.76,1.12c-.49,0-1.04-.11-1.64-.33v4.15h-1.57ZM290.6,106.43h-1.09v4.78c.47.24.97.36,1.48.36.72,0,1.31-.25,1.76-.75.46-.5.69-1.15.69-1.93,0-.51-.11-.95-.32-1.34-.22-.39-.51-.67-.88-.85-.37-.18-.92-.27-1.64-.27Z"/>
    <path class="st4" d="M303.3,109.01h-5.46c.04.74.29,1.33.75,1.77.46.44,1.05.66,1.78.66,1.01,0,1.95-.31,2.8-.94v1.5c-.47.31-.94.54-1.4.67-.46.14-1.01.2-1.63.2-.85,0-1.55-.18-2.08-.53-.53-.35-.95-.83-1.27-1.43s-.48-1.29-.48-2.08c0-1.18.33-2.14,1-2.88s1.54-1.11,2.61-1.11,1.85.36,2.46,1.08c.61.72.92,1.69.92,2.89v.19ZM297.88,108.09h3.91c-.04-.61-.22-1.09-.55-1.42-.33-.33-.77-.5-1.32-.5s-1,.17-1.35.5c-.35.33-.58.8-.69,1.42Z"/>
    <path class="st4" d="M306.5,105v.99c.69-.76,1.47-1.14,2.34-1.14.48,0,.93.13,1.35.38.42.25.73.59.95,1.03.22.44.33,1.13.33,2.07v4.44h-1.54v-4.42c0-.79-.12-1.36-.36-1.7-.24-.34-.65-.51-1.22-.51-.73,0-1.34.36-1.85,1.09v5.54h-1.57v-7.76h1.57Z"/>
    <path class="st4" d="M313.22,112.2v-1.65c.43.3.88.55,1.33.74s.83.28,1.14.28.6-.08.83-.24c.23-.16.35-.35.35-.57s-.07-.41-.22-.56c-.15-.15-.47-.36-.97-.65-.99-.55-1.64-1.02-1.94-1.41-.31-.39-.46-.82-.46-1.28,0-.6.23-1.08.7-1.46.46-.38,1.06-.57,1.79-.57s1.54.21,2.34.64v1.52c-.91-.55-1.66-.83-2.24-.83-.3,0-.54.06-.72.19-.18.13-.27.29-.27.5,0,.18.08.35.25.52.17.16.46.36.87.59l.55.31c1.29.73,1.94,1.54,1.94,2.43,0,.64-.25,1.16-.75,1.56-.5.41-1.14.61-1.92.61-.46,0-.87-.05-1.23-.15-.36-.1-.81-.28-1.36-.54Z"/>
    <path class="st4" d="M324.98,100.97h1.54v4.58c.66-.48,1.37-.73,2.13-.73.98,0,1.79.37,2.41,1.11.62.74.94,1.7.94,2.86,0,1.25-.37,2.24-1.12,2.98-.75.74-1.74,1.11-2.99,1.11-.5,0-1.03-.05-1.58-.16s-.99-.24-1.32-.4v-11.36ZM326.52,107.02v4.2c.52.16,1.06.24,1.61.24.68,0,1.24-.24,1.67-.73s.65-1.11.65-1.86-.2-1.4-.6-1.88c-.4-.48-.93-.73-1.57-.73-.57,0-1.16.25-1.75.76Z"/>
    <path class="st4" d="M338.29,105h1.72l-5.5,11.72h-1.71l2.64-5.62-3-6.1h1.75l2.1,4.38,2.01-4.38Z"/>
    <path class="st4" d="M351.07,100.97h1.54v11.79h-3.28c-1.15,0-2.06-.36-2.75-1.09-.68-.73-1.03-1.7-1.03-2.92,0-1.14.36-2.08,1.08-2.82.72-.74,1.63-1.1,2.75-1.1.52,0,1.08.11,1.69.33v-4.19ZM351.07,111.44v-4.92c-.48-.24-.96-.36-1.45-.36-.77,0-1.37.25-1.83.75-.45.5-.68,1.18-.68,2.02,0,.8.2,1.42.59,1.85.24.26.49.43.75.52.26.09.74.13,1.43.13h1.19Z"/>
    <path class="st4" d="M356.35,105v1.78l.08-.13c.74-1.2,1.48-1.8,2.23-1.8.58,0,1.18.29,1.81.88l-.81,1.35c-.53-.51-1.03-.76-1.49-.76-.49,0-.92.24-1.29.71-.36.47-.54,1.03-.54,1.68v4.06h-1.54v-7.76h1.54Z"/>
    <path class="st4" d="M362.34,101.73c.25,0,.47.09.65.26s.27.39.27.64-.09.46-.27.64c-.18.18-.4.27-.65.27-.24,0-.44-.09-.62-.27-.18-.18-.27-.4-.27-.64s.09-.45.27-.63c.18-.18.39-.27.62-.27ZM361.58,105h1.54v7.76h-1.54v-7.76Z"/>
    <path class="st4" d="M365.27,100.97h1.54v4.58c.66-.48,1.37-.73,2.13-.73.98,0,1.79.37,2.41,1.11.62.74.94,1.7.94,2.86,0,1.25-.37,2.24-1.12,2.98-.75.74-1.74,1.11-2.99,1.11-.5,0-1.03-.05-1.58-.16s-.99-.24-1.32-.4v-11.36ZM366.8,107.02v4.2c.52.16,1.06.24,1.61.24.68,0,1.24-.24,1.67-.73s.65-1.11.65-1.86-.2-1.4-.6-1.88c-.4-.48-.93-.73-1.57-.73-.57,0-1.16.25-1.75.76Z"/>
    <path class="st4" d="M373.91,100.97h1.54v4.58c.66-.48,1.37-.73,2.13-.73.98,0,1.79.37,2.41,1.11.62.74.94,1.7.94,2.86,0,1.25-.37,2.24-1.12,2.98-.75.74-1.74,1.11-2.99,1.11-.5,0-1.03-.05-1.58-.16s-.99-.24-1.32-.4v-11.36ZM375.44,107.02v4.2c.52.16,1.06.24,1.61.24.68,0,1.24-.24,1.67-.73s.65-1.11.65-1.86-.2-1.4-.6-1.88c-.4-.48-.93-.73-1.57-.73-.57,0-1.16.25-1.75.76Z"/>
    <path class="st4" d="M382.65,100.97h1.54v11.79h-1.54v-11.79Z"/>
    <path class="st4" d="M387.19,101.73c.25,0,.47.09.65.26s.27.39.27.64-.09.46-.27.64c-.18.18-.4.27-.65.27-.24,0-.44-.09-.62-.27-.18-.18-.27-.4-.27-.64s.09-.45.27-.63c.18-.18.39-.27.62-.27ZM386.44,105h1.54v7.76h-1.54v-7.76Z"/>
    <path class="st4" d="M391.73,105v.99c.69-.76,1.47-1.14,2.34-1.14.48,0,.93.13,1.35.38.42.25.73.59.95,1.03.22.44.33,1.13.33,2.07v4.44h-1.54v-4.42c0-.79-.12-1.36-.36-1.7-.24-.34-.65-.51-1.22-.51-.73,0-1.34.36-1.85,1.09v5.54h-1.57v-7.76h1.57Z"/>
    <path class="st4" d="M398.43,107.68c0-.83.3-1.48.91-1.96.6-.48,1.43-.72,2.48-.72h3.2v1.2h-1.57c.3.31.51.59.63.84.12.25.18.54.18.87,0,.4-.12.8-.35,1.19-.23.39-.53.69-.89.9-.36.21-.96.37-1.78.5-.58.08-.87.28-.87.6,0,.18.11.33.32.44.22.12.61.23,1.18.36.95.21,1.56.37,1.83.49s.52.29.74.51c.37.37.56.84.56,1.4,0,.74-.33,1.33-.98,1.76-.66.44-1.53.66-2.63.66s-1.99-.22-2.65-.66c-.66-.44-.99-1.03-.99-1.78,0-1.05.65-1.73,1.95-2.03-.52-.33-.78-.66-.78-.99,0-.25.11-.47.33-.67.22-.2.52-.35.9-.45-1.14-.51-1.71-1.32-1.71-2.46ZM400.96,113.12c-.52,0-.94.11-1.27.33s-.49.5-.49.84c0,.8.72,1.2,2.16,1.2.68,0,1.21-.1,1.58-.3.37-.2.56-.48.56-.85s-.24-.65-.71-.88c-.47-.23-1.08-.34-1.83-.34ZM401.32,106.33c-.42,0-.77.14-1.06.42s-.44.62-.44,1.01.14.73.43.99c.29.26.65.39,1.09.39s.79-.13,1.08-.4c.29-.27.43-.6.43-1s-.15-.74-.44-1.01-.66-.4-1.1-.4Z"/>
    <path class="st4" d="M409.92,106.23l2.89-2.83v1.6h2.46v1.38h-2.46v3.8c0,.89.37,1.33,1.1,1.33.55,0,1.13-.18,1.75-.55v1.43c-.59.33-1.23.5-1.93.5s-1.29-.21-1.75-.62c-.15-.12-.27-.26-.36-.42s-.18-.36-.24-.61c-.06-.25-.1-.73-.1-1.43v-3.44h-1.35v-.15Z"/>
    <path class="st4" d="M416.73,100.97h1.54v5.05c.64-.78,1.44-1.17,2.39-1.17.52,0,.98.13,1.39.39.41.26.72.62.92,1.07.2.46.3,1.13.3,2.03v4.42h-1.54v-4.8c0-.57-.14-1.03-.42-1.37-.28-.35-.65-.52-1.1-.52-.34,0-.66.09-.95.26-.3.17-.63.46-.99.87v5.56h-1.54v-11.79Z"/>
    <path class="st4" d="M432.01,109.01h-5.46c.04.74.29,1.33.75,1.77.46.44,1.05.66,1.78.66,1.01,0,1.95-.31,2.8-.94v1.5c-.47.31-.94.54-1.4.67-.46.14-1.01.2-1.63.2-.86,0-1.55-.18-2.08-.53-.53-.35-.95-.83-1.27-1.43-.32-.6-.48-1.29-.48-2.08,0-1.18.33-2.14,1-2.88.67-.74,1.54-1.11,2.61-1.11s1.85.36,2.46,1.08c.61.72.92,1.69.92,2.89v.19ZM426.59,108.09h3.91c-.04-.61-.22-1.09-.55-1.42-.33-.33-.77-.5-1.32-.5s-1,.17-1.35.5c-.35.33-.58.8-.69,1.42Z"/>
    <path class="st4" d="M438.41,100.97h1.54v4.58c.66-.48,1.37-.73,2.13-.73.98,0,1.79.37,2.41,1.11.62.74.94,1.7.94,2.86,0,1.25-.37,2.24-1.12,2.98-.75.74-1.74,1.11-2.99,1.11-.5,0-1.03-.05-1.58-.16-.55-.11-1-.24-1.32-.4v-11.36ZM439.95,107.02v4.2c.52.16,1.06.24,1.61.24.68,0,1.24-.24,1.67-.73.43-.48.65-1.11.65-1.86s-.2-1.4-.6-1.88c-.4-.48-.93-.73-1.57-.73-.57,0-1.16.25-1.75.76Z"/>
    <path class="st4" d="M451.99,108.09v3.3c0,.26.09.4.27.4s.48-.14.87-.41v.94c-.35.23-.63.38-.84.46s-.43.12-.66.12c-.66,0-1.05-.26-1.16-.78-.65.51-1.35.76-2.08.76-.54,0-.99-.18-1.35-.54-.36-.36-.54-.81-.54-1.35,0-.49.18-.93.53-1.31.35-.39.85-.69,1.5-.92l1.97-.68v-.41c0-.93-.47-1.4-1.4-1.4-.84,0-1.65.43-2.45,1.3v-1.68c.6-.7,1.45-1.05,2.57-1.05.84,0,1.51.22,2.02.66.17.14.32.33.46.56s.22.47.26.7c.04.23.05.68.05,1.33ZM450.48,111.22v-2.3l-1.03.4c-.52.21-.89.42-1.11.63-.22.21-.33.47-.33.79s.1.58.31.78c.21.2.47.3.8.3.49,0,.94-.2,1.36-.6Z"/>
    <path class="st4" d="M454.53,100.97h1.54v11.79h-1.54v-11.79Z"/>
    <path class="st4" d="M458.31,100.97h1.54v11.79h-1.54v-11.79Z"/>
    <path class="st4" d="M36.7,122.47c.25,0,.47.09.65.26.18.17.27.39.27.64s-.09.46-.27.64c-.18.18-.4.27-.65.27-.24,0-.44-.09-.62-.27-.18-.18-.27-.39-.27-.64s.09-.45.27-.63c.18-.18.39-.27.62-.27ZM35.94,125.73h1.54v7.76h-1.54v-7.76Z"/>
    <path class="st4" d="M41.23,125.73v.99c.69-.76,1.47-1.14,2.34-1.14.48,0,.93.12,1.35.38.42.25.73.59.95,1.03.22.44.33,1.13.33,2.07v4.44h-1.54v-4.42c0-.79-.12-1.36-.36-1.7-.24-.34-.65-.51-1.22-.51-.73,0-1.34.36-1.85,1.09v5.54h-1.57v-7.76h1.57Z"/>
    <path class="st4" d="M47.25,126.96l2.89-2.83v1.6h2.46v1.38h-2.46v3.8c0,.89.37,1.33,1.1,1.33.55,0,1.13-.18,1.75-.55v1.43c-.59.33-1.23.5-1.93.5s-1.29-.21-1.75-.62c-.15-.12-.27-.26-.36-.42-.1-.16-.18-.36-.24-.61-.06-.25-.1-.73-.1-1.43v-3.44h-1.35v-.15Z"/>
    <path class="st4" d="M57.8,125.71c1.18,0,2.16.38,2.94,1.14.78.76,1.17,1.72,1.17,2.87s-.4,2.05-1.19,2.79c-.79.74-1.79,1.11-3,1.11s-2.14-.38-2.92-1.13-1.17-1.69-1.17-2.81.4-2.08,1.19-2.84,1.78-1.13,2.97-1.13ZM57.72,127.1c-.74,0-1.34.24-1.81.73-.47.48-.71,1.1-.71,1.85s.24,1.35.73,1.82,1.11.7,1.86.7,1.37-.24,1.85-.71c.48-.47.72-1.08.72-1.83s-.25-1.35-.75-1.83-1.13-.73-1.89-.73Z"/>
    <path class="st4" d="M67.34,126.96l2.89-2.83v1.6h2.46v1.38h-2.46v3.8c0,.89.37,1.33,1.1,1.33.55,0,1.13-.18,1.75-.55v1.43c-.59.33-1.23.5-1.93.5s-1.29-.21-1.75-.62c-.15-.12-.27-.26-.36-.42-.1-.16-.18-.36-.24-.61-.06-.25-.1-.73-.1-1.43v-3.44h-1.35v-.15Z"/>
    <path class="st4" d="M74.15,121.71h1.54v5.05c.64-.78,1.44-1.17,2.39-1.17.52,0,.98.13,1.39.39s.72.62.92,1.07c.2.46.3,1.13.3,2.03v4.42h-1.54v-4.8c0-.57-.14-1.03-.42-1.37-.28-.35-.65-.52-1.1-.52-.34,0-.66.09-.95.26-.3.17-.63.46-.99.87v5.56h-1.54v-11.79Z"/>
    <path class="st4" d="M89.44,129.75h-5.46c.04.74.29,1.33.75,1.77.46.44,1.05.66,1.78.66,1.01,0,1.95-.31,2.8-.95v1.5c-.47.32-.94.54-1.4.68-.46.13-1.01.2-1.63.2-.85,0-1.55-.18-2.08-.53-.53-.35-.95-.83-1.27-1.43-.32-.6-.48-1.29-.48-2.08,0-1.18.33-2.14,1-2.88.67-.74,1.54-1.11,2.61-1.11s1.85.36,2.46,1.08c.61.72.92,1.68.92,2.89v.19ZM84.01,128.83h3.91c-.04-.61-.22-1.09-.55-1.42-.33-.33-.77-.5-1.32-.5s-1,.17-1.35.5c-.35.33-.58.8-.69,1.42Z"/>
    <path class="st4" d="M102.51,129.75h-5.46c.04.74.29,1.33.75,1.77.46.44,1.05.66,1.78.66,1.01,0,1.95-.31,2.8-.95v1.5c-.47.32-.94.54-1.4.68-.46.13-1.01.2-1.63.2-.85,0-1.55-.18-2.08-.53-.53-.35-.95-.83-1.27-1.43-.32-.6-.48-1.29-.48-2.08,0-1.18.33-2.14,1-2.88.67-.74,1.54-1.11,2.61-1.11s1.85.36,2.46,1.08c.61.72.92,1.68.92,2.89v.19ZM97.09,128.83h3.91c-.04-.61-.22-1.09-.55-1.42-.33-.33-.77-.5-1.32-.5s-1,.17-1.35.5c-.35.33-.58.8-.69,1.42Z"/>
    <path class="st4" d="M105.71,125.73v.99c.69-.76,1.47-1.14,2.34-1.14.48,0,.93.12,1.35.38.42.25.73.59.95,1.03.22.44.33,1.13.33,2.07v4.44h-1.54v-4.42c0-.79-.12-1.36-.36-1.7-.24-.34-.65-.51-1.22-.51-.73,0-1.34.36-1.85,1.09v5.54h-1.57v-7.76h1.57Z"/>
    <path class="st4" d="M118,121.71h1.54v11.79h-3.28c-1.15,0-2.06-.36-2.75-1.09-.68-.73-1.03-1.7-1.03-2.92,0-1.14.36-2.08,1.08-2.82.72-.74,1.63-1.11,2.75-1.11.52,0,1.08.11,1.69.33v-4.18ZM118,132.18v-4.92c-.48-.24-.96-.36-1.45-.36-.77,0-1.37.25-1.83.75-.45.5-.68,1.18-.68,2.03,0,.8.2,1.42.59,1.85.24.26.49.43.75.52.26.09.74.13,1.43.13h1.19Z"/>
    <path class="st4" d="M125.7,125.73h6.63l-4.11,6.33h4.11v1.43h-6.8l4.08-6.33h-3.91v-1.43Z"/>
    <path class="st4" d="M137.34,125.71c1.18,0,2.16.38,2.94,1.14.78.76,1.17,1.72,1.17,2.87s-.4,2.05-1.19,2.79c-.79.74-1.79,1.11-3,1.11s-2.14-.38-2.92-1.13-1.17-1.69-1.17-2.81.4-2.08,1.19-2.84,1.78-1.13,2.97-1.13ZM137.26,127.1c-.74,0-1.34.24-1.81.73-.47.48-.71,1.1-.71,1.85s.24,1.35.73,1.82,1.11.7,1.86.7,1.37-.24,1.85-.71c.48-.47.72-1.08.72-1.83s-.25-1.35-.75-1.83-1.13-.73-1.89-.73Z"/>
    <path class="st4" d="M144.7,125.73v.99c.69-.76,1.47-1.14,2.34-1.14.48,0,.93.12,1.35.38.42.25.73.59.95,1.03.22.44.33,1.13.33,2.07v4.44h-1.54v-4.42c0-.79-.12-1.36-.36-1.7-.24-.34-.65-.51-1.22-.51-.73,0-1.34.36-1.85,1.09v5.54h-1.57v-7.76h1.57Z"/>
    <path class="st4" d="M158.42,129.75h-5.46c.04.74.29,1.33.75,1.77.46.44,1.05.66,1.78.66,1.01,0,1.95-.31,2.8-.95v1.5c-.47.32-.94.54-1.4.68-.46.13-1.01.2-1.63.2-.85,0-1.55-.18-2.08-.53-.53-.35-.95-.83-1.27-1.43-.32-.6-.48-1.29-.48-2.08,0-1.18.33-2.14,1-2.88.67-.74,1.54-1.11,2.61-1.11s1.85.36,2.46,1.08c.61.72.92,1.68.92,2.89v.19ZM153,128.83h3.91c-.04-.61-.22-1.09-.55-1.42-.33-.33-.77-.5-1.32-.5s-1,.17-1.35.5c-.35.33-.58.8-.69,1.42Z"/>
    <path class="st4" d="M161.22,131.61c.29,0,.53.1.73.3.2.2.3.44.3.73s-.1.52-.3.71c-.2.19-.45.29-.74.29s-.53-.1-.73-.29c-.2-.19-.29-.43-.29-.71s.1-.53.29-.73c.2-.2.44-.3.73-.3Z"/>
    <path class="st4" d="M167.41,133.49v-11.8h3.74c1.12,0,2.02.3,2.69.91s1,1.42,1,2.45c0,.69-.17,1.29-.51,1.82-.34.53-.81.91-1.41,1.15s-1.45.36-2.56.36h-1.25v5.11h-1.7ZM170.85,123.19h-1.75v3.69h1.85c.69,0,1.21-.16,1.59-.49.37-.32.56-.79.56-1.39,0-1.21-.75-1.81-2.24-1.81Z"/>
    <path class="st4" d="M179.38,125.71c1.18,0,2.16.38,2.94,1.14.78.76,1.17,1.72,1.17,2.87s-.4,2.05-1.19,2.79c-.79.74-1.79,1.11-3,1.11s-2.14-.38-2.92-1.13-1.17-1.69-1.17-2.81.4-2.08,1.19-2.84,1.78-1.13,2.97-1.13ZM179.29,127.1c-.74,0-1.34.24-1.81.73-.47.48-.71,1.1-.71,1.85s.24,1.35.73,1.82,1.11.7,1.86.7,1.37-.24,1.85-.71c.48-.47.72-1.08.72-1.83s-.25-1.35-.75-1.83-1.13-.73-1.89-.73Z"/>
    <path class="st4" d="M184.82,132.94v-1.65c.43.3.88.55,1.33.74s.83.28,1.14.28.6-.08.83-.24.35-.35.35-.57-.07-.41-.22-.56c-.15-.15-.47-.36-.97-.65-.99-.55-1.64-1.02-1.94-1.41-.31-.39-.46-.82-.46-1.28,0-.6.23-1.08.7-1.46.46-.38,1.06-.57,1.79-.57s1.54.21,2.34.64v1.52c-.91-.55-1.66-.83-2.24-.83-.3,0-.54.06-.72.19-.18.13-.27.29-.27.5,0,.18.08.35.25.52s.46.36.87.59l.55.31c1.29.73,1.94,1.54,1.94,2.43,0,.63-.25,1.16-.75,1.56-.5.41-1.14.61-1.92.61-.46,0-.87-.05-1.23-.15-.36-.1-.81-.28-1.36-.54Z"/>
    <path class="st4" d="M191.47,132.94v-1.65c.43.3.88.55,1.33.74s.83.28,1.14.28.6-.08.83-.24.35-.35.35-.57-.07-.41-.22-.56c-.15-.15-.47-.36-.97-.65-.99-.55-1.64-1.02-1.94-1.41-.31-.39-.46-.82-.46-1.28,0-.6.23-1.08.7-1.46.46-.38,1.06-.57,1.79-.57s1.54.21,2.34.64v1.52c-.91-.55-1.66-.83-2.24-.83-.3,0-.54.06-.72.19-.18.13-.27.29-.27.5,0,.18.08.35.25.52s.46.36.87.59l.55.31c1.29.73,1.94,1.54,1.94,2.43,0,.63-.25,1.16-.75,1.56-.5.41-1.14.61-1.92.61-.46,0-.87-.05-1.23-.15-.36-.1-.81-.28-1.36-.54Z"/>
    <path class="st4" d="M205.11,129.75h-5.46c.04.74.29,1.33.75,1.77.46.44,1.05.66,1.78.66,1.01,0,1.95-.31,2.8-.95v1.5c-.47.32-.94.54-1.4.68-.46.13-1.01.2-1.63.2-.85,0-1.55-.18-2.08-.53-.53-.35-.95-.83-1.27-1.43-.32-.6-.48-1.29-.48-2.08,0-1.18.33-2.14,1-2.88.67-.74,1.54-1.11,2.61-1.11s1.85.36,2.46,1.08c.61.72.92,1.68.92,2.89v.19ZM199.69,128.83h3.91c-.04-.61-.22-1.09-.55-1.42-.33-.33-.77-.5-1.32-.5s-1,.17-1.35.5c-.35.33-.58.8-.69,1.42Z"/>
    <path class="st4" d="M206.4,132.94v-1.65c.43.3.88.55,1.33.74s.83.28,1.14.28.6-.08.83-.24.35-.35.35-.57-.07-.41-.22-.56c-.15-.15-.47-.36-.97-.65-.99-.55-1.64-1.02-1.94-1.41-.31-.39-.46-.82-.46-1.28,0-.6.23-1.08.7-1.46.46-.38,1.06-.57,1.79-.57s1.54.21,2.34.64v1.52c-.91-.55-1.66-.83-2.24-.83-.3,0-.54.06-.72.19-.18.13-.27.29-.27.5,0,.18.08.35.25.52s.46.36.87.59l.55.31c1.29.73,1.94,1.54,1.94,2.43,0,.63-.25,1.16-.75,1.56-.5.41-1.14.61-1.92.61-.46,0-.87-.05-1.23-.15-.36-.1-.81-.28-1.36-.54Z"/>
    <path class="st4" d="M213.04,132.94v-1.65c.43.3.88.55,1.33.74s.83.28,1.14.28.6-.08.83-.24.35-.35.35-.57-.07-.41-.22-.56c-.15-.15-.47-.36-.97-.65-.99-.55-1.64-1.02-1.94-1.41-.31-.39-.46-.82-.46-1.28,0-.6.23-1.08.7-1.46.46-.38,1.06-.57,1.79-.57s1.54.21,2.34.64v1.52c-.91-.55-1.66-.83-2.24-.83-.3,0-.54.06-.72.19-.18.13-.27.29-.27.5,0,.18.08.35.25.52s.46.36.87.59l.55.31c1.29.73,1.94,1.54,1.94,2.43,0,.63-.25,1.16-.75,1.56-.5.41-1.14.61-1.92.61-.46,0-.87-.05-1.23-.15-.36-.1-.81-.28-1.36-.54Z"/>
    <path class="st4" d="M220.87,122.47c.25,0,.47.09.65.26.18.17.27.39.27.64s-.09.46-.27.64c-.18.18-.4.27-.65.27-.24,0-.44-.09-.62-.27-.18-.18-.27-.39-.27-.64s.09-.45.27-.63c.18-.18.39-.27.62-.27ZM220.11,125.73h1.54v7.76h-1.54v-7.76Z"/>
    <path class="st4" d="M227.57,125.71c1.18,0,2.16.38,2.94,1.14.78.76,1.17,1.72,1.17,2.87s-.4,2.05-1.19,2.79c-.79.74-1.79,1.11-3,1.11s-2.14-.38-2.92-1.13-1.17-1.69-1.17-2.81.4-2.08,1.19-2.84,1.78-1.13,2.97-1.13ZM227.49,127.1c-.74,0-1.34.24-1.81.73-.47.48-.71,1.1-.71,1.85s.24,1.35.73,1.82,1.11.7,1.86.7,1.37-.24,1.85-.71c.48-.47.72-1.08.72-1.83s-.25-1.35-.75-1.83-1.13-.73-1.89-.73Z"/>
    <path class="st4" d="M234.93,125.73v.99c.69-.76,1.47-1.14,2.34-1.14.48,0,.93.12,1.35.38.42.25.73.59.95,1.03.22.44.33,1.13.33,2.07v4.44h-1.54v-4.42c0-.79-.12-1.36-.36-1.7-.24-.34-.65-.51-1.22-.51-.73,0-1.34.36-1.85,1.09v5.54h-1.57v-7.76h1.57Z"/>
    <path class="st4" d="M252.66,131.68v1.52c-.77.29-1.52.43-2.26.43-1.21,0-2.18-.36-2.91-1.08-.72-.72-1.08-1.68-1.08-2.89s.35-2.21,1.05-2.95,1.63-1.12,2.78-1.12c.4,0,.76.04,1.08.11.32.08.71.22,1.18.43v1.64c-.78-.5-1.5-.74-2.16-.74s-1.26.24-1.7.73-.67,1.11-.67,1.86c0,.79.24,1.42.72,1.89s1.13.7,1.94.7c.59,0,1.27-.17,2.03-.51Z"/>
    <path class="st4" d="M254.37,121.71h1.54v5.05c.64-.78,1.44-1.17,2.39-1.17.52,0,.98.13,1.39.39s.72.62.92,1.07c.2.46.3,1.13.3,2.03v4.42h-1.54v-4.8c0-.57-.14-1.03-.42-1.37-.28-.35-.65-.52-1.1-.52-.34,0-.66.09-.95.26-.3.17-.63.46-.99.87v5.56h-1.54v-11.79Z"/>
    <path class="st4" d="M267.92,128.83v3.3c0,.26.09.4.27.4s.48-.14.87-.41v.94c-.35.23-.63.38-.84.46s-.43.12-.66.12c-.66,0-1.05-.26-1.16-.78-.65.51-1.35.76-2.08.76-.54,0-.99-.18-1.35-.54-.36-.36-.54-.81-.54-1.35,0-.49.18-.93.53-1.31.35-.39.85-.69,1.5-.92l1.97-.67v-.41c0-.93-.47-1.4-1.4-1.4-.84,0-1.65.43-2.45,1.3v-1.68c.6-.7,1.45-1.05,2.57-1.05.84,0,1.51.22,2.02.66.17.14.32.33.46.56.13.23.22.47.26.7.04.23.05.68.05,1.33ZM266.41,131.96v-2.3l-1.03.4c-.52.21-.89.42-1.11.63-.22.21-.32.47-.32.79s.1.58.31.79c.21.2.47.3.8.3.49,0,.94-.2,1.36-.6Z"/>
    <path class="st4" d="M271.96,125.73v.99c.69-.76,1.47-1.14,2.34-1.14.48,0,.93.12,1.35.38.42.25.73.59.95,1.03.22.44.33,1.13.33,2.07v4.44h-1.54v-4.42c0-.79-.12-1.36-.36-1.7-.24-.34-.65-.51-1.22-.51-.73,0-1.34.36-1.85,1.09v5.54h-1.57v-7.76h1.57Z"/>
    <path class="st4" d="M278.66,128.42c0-.83.3-1.48.91-1.96.6-.48,1.43-.72,2.48-.72h3.2v1.2h-1.57c.3.31.51.59.63.84s.18.54.18.87c0,.41-.12.8-.35,1.19-.23.39-.53.69-.89.9s-.96.37-1.78.5c-.58.08-.87.28-.87.6,0,.18.11.33.32.44.22.12.61.23,1.18.36.95.21,1.56.37,1.83.49s.52.29.74.51c.37.37.56.84.56,1.4,0,.74-.33,1.33-.98,1.76-.66.44-1.53.66-2.63.66s-1.99-.22-2.65-.66c-.66-.44-.99-1.03-.99-1.78,0-1.05.65-1.73,1.95-2.03-.52-.33-.78-.66-.78-.99,0-.25.11-.47.33-.67s.52-.35.9-.45c-1.14-.51-1.71-1.33-1.71-2.46ZM281.19,133.86c-.52,0-.94.11-1.27.33-.33.22-.49.5-.49.84,0,.8.72,1.2,2.16,1.2.68,0,1.21-.1,1.58-.3.37-.2.56-.48.56-.85s-.24-.65-.71-.88c-.47-.23-1.08-.34-1.83-.34ZM281.55,127.06c-.42,0-.77.14-1.06.42s-.44.62-.44,1.01.14.73.43.99c.29.26.65.39,1.09.39s.79-.13,1.08-.4c.29-.27.43-.6.43-1s-.15-.74-.44-1.01c-.29-.27-.66-.41-1.1-.41Z"/>
    <path class="st4" d="M293.05,129.75h-5.46c.04.74.29,1.33.75,1.77.46.44,1.05.66,1.78.66,1.01,0,1.95-.31,2.8-.95v1.5c-.47.32-.94.54-1.4.68-.46.13-1.01.2-1.63.2-.85,0-1.55-.18-2.08-.53-.53-.35-.95-.83-1.27-1.43-.32-.6-.48-1.29-.48-2.08,0-1.18.33-2.14,1-2.88.67-.74,1.54-1.11,2.61-1.11s1.85.36,2.46,1.08c.61.72.92,1.68.92,2.89v.19ZM287.62,128.83h3.91c-.04-.61-.22-1.09-.55-1.42-.33-.33-.77-.5-1.32-.5s-1,.17-1.35.5c-.35.33-.58.8-.69,1.42Z"/>
    <path class="st4" d="M294.33,132.94v-1.65c.43.3.88.55,1.33.74s.83.28,1.14.28.6-.08.83-.24.35-.35.35-.57-.07-.41-.22-.56c-.15-.15-.47-.36-.97-.65-.99-.55-1.64-1.02-1.94-1.41-.31-.39-.46-.82-.46-1.28,0-.6.23-1.08.7-1.46.46-.38,1.06-.57,1.79-.57s1.54.21,2.34.64v1.52c-.91-.55-1.66-.83-2.24-.83-.3,0-.54.06-.72.19-.18.13-.27.29-.27.5,0,.18.08.35.25.52s.46.36.87.59l.55.31c1.29.73,1.94,1.54,1.94,2.43,0,.63-.25,1.16-.75,1.56-.5.41-1.14.61-1.92.61-.46,0-.87-.05-1.23-.15-.36-.1-.81-.28-1.36-.54Z"/>
    <path class="st4" d="M311.04,128.83v3.3c0,.26.09.4.27.4s.48-.14.87-.41v.94c-.35.23-.63.38-.84.46s-.43.12-.66.12c-.66,0-1.05-.26-1.16-.78-.65.51-1.35.76-2.08.76-.54,0-.99-.18-1.35-.54-.36-.36-.54-.81-.54-1.35,0-.49.18-.93.53-1.31.35-.39.85-.69,1.5-.92l1.97-.67v-.41c0-.93-.47-1.4-1.4-1.4-.84,0-1.65.43-2.45,1.3v-1.68c.6-.7,1.45-1.05,2.57-1.05.84,0,1.51.22,2.02.66.17.14.32.33.46.56.13.23.22.47.26.7.04.23.05.68.05,1.33ZM309.53,131.96v-2.3l-1.03.4c-.52.21-.89.42-1.11.63-.22.21-.32.47-.32.79s.1.58.31.79c.21.2.47.3.8.3.49,0,.94-.2,1.36-.6Z"/>
    <path class="st4" d="M313.71,125.73v-.46c0-1.25.27-2.18.8-2.79s1.17-.92,1.91-.92c.32,0,.7.05,1.14.15v1.5c-.25-.09-.48-.13-.71-.13-.6,0-1.02.16-1.25.48s-.35.89-.35,1.71v.46h1.38v1.38h-1.38v6.38h-1.54v-6.38h-1.11v-1.38h1.11Z"/>
    <path class="st4" d="M316.77,126.96l2.89-2.83v1.6h2.46v1.38h-2.46v3.8c0,.89.37,1.33,1.1,1.33.55,0,1.13-.18,1.75-.55v1.43c-.59.33-1.23.5-1.93.5s-1.29-.21-1.75-.62c-.15-.12-.27-.26-.36-.42-.1-.16-.18-.36-.24-.61-.06-.25-.1-.73-.1-1.43v-3.44h-1.35v-.15Z"/>
    <path class="st4" d="M330.22,129.75h-5.46c.04.74.29,1.33.75,1.77.46.44,1.05.66,1.78.66,1.01,0,1.95-.31,2.8-.95v1.5c-.47.32-.94.54-1.4.68-.46.13-1.01.2-1.63.2-.85,0-1.55-.18-2.08-.53-.53-.35-.95-.83-1.27-1.43-.32-.6-.48-1.29-.48-2.08,0-1.18.33-2.14,1-2.88.67-.74,1.54-1.11,2.61-1.11s1.85.36,2.46,1.08c.61.72.92,1.68.92,2.89v.19ZM324.8,128.83h3.91c-.04-.61-.22-1.09-.55-1.42-.33-.33-.77-.5-1.32-.5s-1,.17-1.35.5c-.35.33-.58.8-.69,1.42Z"/>
    <path class="st4" d="M333.53,125.73v1.78l.08-.13c.74-1.2,1.48-1.8,2.23-1.8.58,0,1.18.29,1.81.88l-.81,1.35c-.53-.51-1.03-.76-1.49-.76-.49,0-.92.24-1.29.71s-.54,1.03-.54,1.68v4.06h-1.54v-7.76h1.54Z"/>
    <path class="st4" d="M350.15,129.75h-5.46c.04.74.29,1.33.75,1.77.46.44,1.05.66,1.78.66,1.01,0,1.95-.31,2.8-.95v1.5c-.47.32-.94.54-1.4.68-.46.13-1.01.2-1.63.2-.85,0-1.55-.18-2.08-.53-.53-.35-.95-.83-1.27-1.43-.32-.6-.48-1.29-.48-2.08,0-1.18.33-2.14,1-2.88.67-.74,1.54-1.11,2.61-1.11s1.85.36,2.46,1.08c.61.72.92,1.68.92,2.89v.19ZM344.72,128.83h3.91c-.04-.61-.22-1.09-.55-1.42-.33-.33-.77-.5-1.32-.5s-1,.17-1.35.5c-.35.33-.58.8-.69,1.42Z"/>
    <path class="st4" d="M356.68,128.83v3.3c0,.26.09.4.27.4s.48-.14.87-.41v.94c-.35.23-.63.38-.84.46s-.43.12-.66.12c-.66,0-1.05-.26-1.16-.78-.65.51-1.35.76-2.08.76-.54,0-.99-.18-1.35-.54-.36-.36-.54-.81-.54-1.35,0-.49.18-.93.53-1.31.35-.39.85-.69,1.5-.92l1.97-.67v-.41c0-.93-.47-1.4-1.4-1.4-.84,0-1.65.43-2.45,1.3v-1.68c.6-.7,1.45-1.05,2.57-1.05.84,0,1.51.22,2.02.66.17.14.32.33.46.56.13.23.22.47.26.7.04.23.05.68.05,1.33ZM355.17,131.96v-2.3l-1.03.4c-.52.21-.89.42-1.11.63-.22.21-.32.47-.32.79s.1.58.31.79c.21.2.47.3.8.3.49,0,.94-.2,1.36-.6Z"/>
    <path class="st4" d="M365,131.68v1.52c-.77.29-1.52.43-2.26.43-1.21,0-2.18-.36-2.91-1.08-.72-.72-1.08-1.68-1.08-2.89s.35-2.21,1.05-2.95,1.63-1.12,2.78-1.12c.4,0,.76.04,1.08.11.32.08.71.22,1.18.43v1.64c-.78-.5-1.5-.74-2.16-.74s-1.26.24-1.7.73-.67,1.11-.67,1.86c0,.79.24,1.42.72,1.89s1.13.7,1.94.7c.59,0,1.27-.17,2.03-.51Z"/>
    <path class="st4" d="M366.72,121.71h1.54v5.05c.64-.78,1.44-1.17,2.39-1.17.52,0,.98.13,1.39.39s.72.62.92,1.07c.2.46.3,1.13.3,2.03v4.42h-1.54v-4.8c0-.57-.14-1.03-.42-1.37-.28-.35-.65-.52-1.1-.52-.34,0-.66.09-.95.26-.3.17-.63.46-.99.87v5.56h-1.54v-11.79Z"/>
    <path class="st4" d="M379.81,132.94v-1.65c.43.3.88.55,1.33.74s.83.28,1.14.28.6-.08.83-.24.35-.35.35-.57-.07-.41-.22-.56c-.15-.15-.47-.36-.97-.65-.99-.55-1.64-1.02-1.94-1.41-.31-.39-.46-.82-.46-1.28,0-.6.23-1.08.7-1.46.46-.38,1.06-.57,1.79-.57s1.54.21,2.34.64v1.52c-.91-.55-1.66-.83-2.24-.83-.3,0-.54.06-.72.19-.18.13-.27.29-.27.5,0,.18.08.35.25.52s.46.36.87.59l.55.31c1.29.73,1.94,1.54,1.94,2.43,0,.63-.25,1.16-.75,1.56-.5.41-1.14.61-1.92.61-.46,0-.87-.05-1.23-.15-.36-.1-.81-.28-1.36-.54Z"/>
    <path class="st4" d="M392.66,131.68v1.52c-.77.29-1.52.43-2.26.43-1.21,0-2.18-.36-2.91-1.08-.72-.72-1.08-1.68-1.08-2.89s.35-2.21,1.05-2.95,1.63-1.12,2.78-1.12c.4,0,.76.04,1.08.11.32.08.71.22,1.18.43v1.64c-.78-.5-1.5-.74-2.16-.74s-1.26.24-1.7.73-.67,1.11-.67,1.86c0,.79.24,1.42.72,1.89s1.13.7,1.94.7c.59,0,1.27-.17,2.03-.51Z"/>
    <path class="st4" d="M398.12,125.71c1.18,0,2.16.38,2.94,1.14.78.76,1.17,1.72,1.17,2.87s-.4,2.05-1.19,2.79c-.79.74-1.79,1.11-3,1.11s-2.14-.38-2.92-1.13-1.17-1.69-1.17-2.81.4-2.08,1.19-2.84,1.78-1.13,2.97-1.13ZM398.04,127.1c-.74,0-1.34.24-1.81.73-.47.48-.71,1.1-.71,1.85s.24,1.35.73,1.82,1.11.7,1.86.7,1.37-.24,1.85-.71c.48-.47.72-1.08.72-1.83s-.25-1.35-.75-1.83-1.13-.73-1.89-.73Z"/>
    <path class="st4" d="M405.59,125.73v1.78l.08-.13c.74-1.2,1.48-1.8,2.23-1.8.58,0,1.18.29,1.81.88l-.81,1.35c-.53-.51-1.03-.76-1.49-.76-.49,0-.92.24-1.29.71s-.54,1.03-.54,1.68v4.06h-1.54v-7.76h1.54Z"/>
    <path class="st4" d="M417.05,129.75h-5.46c.04.74.29,1.33.75,1.77.46.44,1.05.66,1.78.66,1.01,0,1.95-.31,2.8-.95v1.5c-.47.32-.94.54-1.4.68-.46.13-1.01.2-1.63.2-.85,0-1.55-.18-2.08-.53-.53-.35-.95-.83-1.27-1.43-.32-.6-.48-1.29-.48-2.08,0-1.18.33-2.14,1-2.88.67-.74,1.54-1.11,2.61-1.11s1.85.36,2.46,1.08c.61.72.92,1.68.92,2.89v.19ZM411.63,128.83h3.91c-.04-.61-.22-1.09-.55-1.42-.33-.33-.77-.5-1.32-.5s-1,.17-1.35.5c-.35.33-.58.8-.69,1.42Z"/>
  </g>
  <circle class="st2" cx="580.9" cy="80.06" r="3.6"/>
  <circle class="st2" cx="565.22" cy="133.49" r="3.6"/>
  <circle class="st2" cx="604.7" cy="108.47" r="3.6"/>
  <circle class="st0" cx="702.08" cy="80.06" r="3.6"/>
  <circle class="st0" cx="686.4" cy="133.49" r="3.6"/>
  <circle class="st0" cx="677.64" cy="104.87" r="3.6"/>
  <rect class="st3" x="782.77" y="50.44" width="27.43" height="113.22"/>
  <rect class="st3" x="489.01" y="50.44" width="27.43" height="113.22"/>
</svg>